<svg xmlns="http://www.w3.org/2000/svg" width='63px' height='30px' viewBox='0 0 63 30'>
    <path
        d="M2.18174 14.747H0V0.606039H2.18174V7.89872H2.22215L9.1512 0.606039H11.9794L5.89879 6.82804L12.0602 14.747H9.33301L4.44429 8.28254H4.38369L2.18174 10.6057V14.747Z">
    </path>
    <path
        d="M15.4073 14.747H13.3266V4.04026H15.3467V5.23214H15.3871C16.2153 4.30288 17.6294 3.73724 19.1243 3.73724C22.1747 3.73724 24.2353 5.61597 24.2353 8.40375V14.747H22.1545V8.74717C22.1545 6.78764 20.9021 5.57556 18.9425 5.57556C16.8214 5.57556 15.4073 6.90885 15.4073 8.78757V14.747Z">
    </path>
    <path
        d="M32.0582 15.05C28.6442 15.05 26.1796 12.6258 26.1796 9.39361C26.1796 6.1614 28.6442 3.73724 32.0582 3.73724C35.4723 3.73724 37.957 6.1614 37.957 9.39361C37.957 12.6258 35.4723 15.05 32.0582 15.05ZM32.0582 13.2117C34.3006 13.2117 35.8763 11.6966 35.8763 9.39361C35.8763 7.09066 34.3006 5.57556 32.0582 5.57556C29.8361 5.57556 28.2604 7.09066 28.2604 9.39361C28.2604 11.6966 29.8361 13.2117 32.0582 13.2117Z">
    </path>
    <path
        d="M46.5937 4.04026V5.81798H43.1595V11.9188C43.1595 12.6258 43.4221 12.8682 44.311 12.8682H46.0887V14.747H44.2099C41.9676 14.747 41.0787 13.9187 41.0787 11.9592V5.81798H38.695V4.04026H41.0787V1.5353H43.1595V4.04026H46.5937Z">
    </path>
    <path
        d="M53.2046 15.05C49.8512 15.05 47.4068 12.646 47.4068 9.39361C47.4068 6.1412 49.8512 3.73724 53.2046 3.73724C55.9116 3.73724 58.0933 5.23214 58.6993 7.55529L56.7196 8.10073C56.2146 6.42402 54.9419 5.57556 53.2046 5.57556C51.0228 5.57556 49.4875 7.07046 49.4875 9.39361C49.4875 11.6966 51.0228 13.2117 53.2046 13.2117C54.9419 13.2117 56.2146 12.3834 56.7196 10.6865L58.6993 11.2117C58.0933 13.5551 55.9116 15.05 53.2046 15.05Z">
    </path>
    <path
        d="M62.7147 14.747H60.6339V0H62.7147V5.23214H62.7551C63.6035 4.26248 64.9368 3.73724 66.4317 3.73724C69.4821 3.73724 71.5426 5.61597 71.5426 8.40375V14.747H69.4619V8.74717C69.4619 6.78764 68.2094 5.57556 66.1691 5.57556C64.1288 5.57556 62.7147 6.90885 62.7147 8.78757V14.747Z">
    </path>
</svg>